<?xml version="1.0" encoding="UTF-8"?>
<svg id="Layer_2" data-name="Layer 2" xmlns="http://www.w3.org/2000/svg" xmlns:xlink="http://www.w3.org/1999/xlink" viewBox="0 0 1918.08 1083.02">
  <defs>
    <style>
      .cls-1 {
        fill: #ff7100;
      }

      .cls-2 {
        fill: #969a9e;
      }

      .cls-3, .cls-4 {
        fill: none;
      }

      .cls-5 {
        fill: #d69d6e;
      }

      .cls-6 {
        fill: #b2805f;
      }

      .cls-4 {
        stroke: #212d3a;
        stroke-miterlimit: 10;
      }

      .cls-7 {
        fill: #5f646b;
      }

      .cls-8 {
        fill: #dca674;
      }

      .cls-9 {
        fill: #f90;
      }

      .cls-10 {
        fill: #dae0e5;
      }

      .cls-11 {
        fill: #daa472;
      }

      .cls-12 {
        fill: #c08e69;
      }

      .cls-13 {
        fill: #212d3a;
      }

      .cls-14 {
        fill: #996e52;
      }

      .cls-15 {
        clip-path: url(#clippath);
      }

      .cls-16 {
        fill: #896049;
      }

      .cls-17 {
        fill: #f5fafc;
      }
    </style>
    <clipPath id="clippath">
      <rect class="cls-3" width="1918.08" height="1083.02"/>
    </clipPath>
  </defs>
  <g id="Layer_2-2" data-name="Layer 2">
    <g class="cls-15">
      <g>
        <rect id="BG" class="cls-17" x="-40.51" y="-67.64" width="1973.11" height="983.95"/>
        <rect id="Floor" class="cls-10" x="-4.53" y="879.62" width="1922.36" height="202.75"/>
        <g>
          <g>
            <line class="cls-4" x1="1790.72" y1="-17.59" x2="1790.97" y2="880.12"/>
            <polyline class="cls-4" points="1791.08 -17.22 1919.34 286.95 1791.47 594.56 1918.85 881.16"/>
          </g>
          <g>
            <g>
              <rect class="cls-8" x="1701.92" y="660.1" width="157.85" height="186.67" transform="translate(3561.7 1506.87) rotate(-180)"/>
              <rect class="cls-12" x="1607.77" y="660.1" width="94.31" height="186.67" transform="translate(3309.84 1506.87) rotate(-180)"/>
              <g>
                <path class="cls-13" d="M1719.38,747.69s22.77,14.46,55.99,14.91c33.21.45,50.71-8.9,50.71-8.9,0,0,3.08-1.5,4.06,0,.99,1.96-1.05,3.16-1.05,3.16,0,0-27.01,17.22-55.91,15.63-35.2-1.94-56.21-22.84-56.21-22.84,0,0-2.68-2.61-1.63-3.42,1.02-.78,4.03,1.46,4.03,1.46Z"/>
                <path class="cls-13" d="M1818,747.13c1.35-.94,3.01-1.36,5.38-1.86,4.17-.76,9.61-1.67,13.88-.63,6.99,1.85,3.7,9.46,1.28,14.62-1.18,2.43-3.32,6.52-5.02,7.83-1.02.83-1.73.4-1.44-1.53.26-2.16,1.64-5.54,2.09-7.95,1.3-6.15-1.64-8.27-7.78-8.22-2.7-.02-5.17.22-7.17-.16-1.17-.17-2.71-.97-1.25-2.07l.03-.03Z"/>
              </g>
              <rect class="cls-13" x="1638.78" y="659.57" width="17.91" height="27.49" transform="translate(3295.47 1346.63) rotate(-180)"/>
            </g>
            <g>
              <rect class="cls-5" x="1525.87" y="631.91" width="97.92" height="215.23" transform="translate(3149.67 1479.06) rotate(-180)"/>
              <rect class="cls-12" x="1406.57" y="631.97" width="119.63" height="214.64" transform="translate(2932.77 1478.58) rotate(-180)"/>
              <g>
                <path class="cls-13" d="M1539.5,698.64s13.71,8.7,33.71,8.98c20,.27,30.54-5.36,30.54-5.36,0,0,1.86-.9,2.44,0,.6,1.18-.63,1.9-.63,1.9,0,0-16.26,10.37-33.66,9.41-21.19-1.17-33.84-13.75-33.84-13.75,0,0-1.62-1.57-.98-2.06s2.43.88,2.43.88Z"/>
                <path class="cls-13" d="M1598.88,698.29c.81-.57,1.81-.82,3.24-1.12,2.51-.46,5.78-1.01,8.36-.38,4.21,1.12,2.23,5.7.77,8.8-.71,1.46-2,3.92-3.02,4.71-.61.5-1.04.24-.87-.92.15-1.3.99-3.33,1.26-4.78.78-3.71-.99-4.98-4.68-4.95-1.63-.01-3.12.13-4.32-.1-.7-.1-1.63-.58-.75-1.25l.02-.02Z"/>
              </g>
            </g>
            <g>
              <rect class="cls-11" x="1540.09" y="790.18" width="89.49" height="56.51" transform="translate(3169.68 1636.88) rotate(-180)"/>
              <rect class="cls-6" x="1450.71" y="790.3" width="89.49" height="56.51" transform="translate(2990.92 1637.11) rotate(-180)"/>
              <rect class="cls-13" x="1583.32" y="790.21" width="12.43" height="19.09" transform="translate(3179.08 1599.5) rotate(-180)"/>
            </g>
            <g>
              <g>
                <rect class="cls-8" x="1368.99" y="718.85" width="115" height="128.24" transform="translate(2852.98 1565.94) rotate(-180)"/>
                <rect class="cls-12" x="1287.1" y="718.88" width="81.89" height="127.89" transform="translate(2656.1 1565.66) rotate(-180)"/>
              </g>
              <g>
                <rect class="cls-13" x="1291.75" y="816.11" width="45.24" height="1.36" transform="translate(2628.74 1633.58) rotate(-180)"/>
                <rect class="cls-13" x="1291.75" y="823.12" width="45.24" height="1.36" transform="translate(2628.74 1647.59) rotate(-180)"/>
              </g>
              <rect class="cls-13" x="1411.86" y="719.31" width="20.71" height="31.79" transform="translate(2844.42 1470.41) rotate(-180)"/>
            </g>
          </g>
          <g id="Pallet">
            <rect class="cls-16" x="1278.71" y="847.91" width="26.53" height="32.38"/>
            <g>
              <rect class="cls-14" x="1415.72" y="848.35" width="10.69" height="32.38"/>
              <rect class="cls-16" x="1426.2" y="848.35" width="26.53" height="32.38"/>
              <rect class="cls-14" x="1269.17" y="847.61" width="10.69" height="32.38"/>
            </g>
            <g>
              <rect class="cls-14" x="1557.98" y="846.97" width="10.69" height="32.38"/>
              <rect class="cls-16" x="1568.45" y="846.97" width="26.53" height="32.38"/>
            </g>
            <g>
              <rect class="cls-14" x="1700.23" y="847.31" width="10.69" height="32.38"/>
              <rect class="cls-16" x="1710.7" y="847.31" width="26.53" height="32.38"/>
            </g>
            <g>
              <rect class="cls-14" x="1842.48" y="846.97" width="10.69" height="32.38"/>
              <rect class="cls-16" x="1852.95" y="846.97" width="26.53" height="32.38"/>
            </g>
            <rect class="cls-16" x="1268.71" y="877.23" width="611.42" height="3.47"/>
            <rect class="cls-16" x="1268.51" y="846.6" width="611.42" height="3.47"/>
          </g>
          <g>
            <g>
              <rect class="cls-12" x="1409.87" y="88.6" width="40.44" height="194.72"/>
              <rect class="cls-5" x="1450.31" y="88.34" width="76.04" height="194.98"/>
            </g>
            <g>
              <rect class="cls-6" x="1525.55" y="107.5" width="12.23" height="173.62"/>
              <rect class="cls-11" x="1537.78" y="107.72" width="98.9" height="173.62"/>
            </g>
            <g>
              <rect class="cls-6" x="1631.84" y="183.13" width="47.91" height="100.66"/>
              <rect class="cls-11" x="1678.44" y="182.91" width="137.14" height="100.66"/>
            </g>
            <g>
              <rect class="cls-5" x="1590.71" y="174.29" width="58.53" height="108.97" transform="translate(3239.94 457.56) rotate(-180)"/>
              <rect class="cls-12" x="1553.58" y="174.29" width="37.13" height="108.86" transform="translate(3144.29 457.45) rotate(-180)"/>
              <rect class="cls-13" x="1564.38" y="174.71" width="12.73" height="19.54" transform="translate(3141.5 368.96) rotate(-180)"/>
              <g>
                <rect class="cls-13" x="1602.4" y="197.58" width="34.38" height="1.03" transform="translate(3239.18 396.2) rotate(-180)"/>
                <rect class="cls-13" x="1602.4" y="202.91" width="34.38" height="1.03" transform="translate(3239.18 406.85) rotate(-180)"/>
              </g>
            </g>
            <g>
              <rect class="cls-6" x="1509.82" y="217.12" width="50.63" height="66.75" transform="translate(3070.28 500.99) rotate(-180)"/>
              <rect class="cls-11" x="1560.45" y="217.21" width="95.95" height="66.55" transform="translate(3216.85 500.97) rotate(-180)"/>
            </g>
            <g>
              <rect class="cls-8" x="1315.56" y="164.79" width="127.23" height="118.72" transform="translate(2758.36 448.31) rotate(-180)"/>
              <rect class="cls-12" x="1239.67" y="164.79" width="76.01" height="118.72" transform="translate(2555.36 448.31) rotate(-180)"/>
              <g>
                <path class="cls-13" d="M1329.64,203.65s18.36,11.65,45.13,12.02c26.77.36,40.88-7.17,40.88-7.17,0,0,2.49-1.21,3.27,0,.8,1.58-.85,2.54-.85,2.54,0,0-21.77,13.88-45.06,12.6-28.37-1.56-45.3-18.41-45.3-18.41,0,0-2.16-2.1-1.31-2.75.82-.63,3.25,1.18,3.25,1.18Z"/>
                <path class="cls-13" d="M1409.12,203.2c1.08-.76,2.42-1.1,4.34-1.5,3.36-.61,7.74-1.35,11.18-.51,5.63,1.49,2.98,7.63,1.03,11.78-.95,1.96-2.68,5.25-4.05,6.31-.82.67-1.39.32-1.16-1.23.21-1.74,1.32-4.46,1.68-6.4,1.05-4.96-1.32-6.66-6.27-6.63-2.18-.02-4.17.17-5.78-.13-.94-.14-2.18-.78-1.01-1.67l.03-.02Z"/>
              </g>
            </g>
          </g>
          <line class="cls-4" x1="1328.21" y1="879.84" x2="1328.21" y2="-22.22"/>
          <line class="cls-4" x1="1200.22" y1="-22.38" x2="1200.48" y2="878.8"/>
          <polyline class="cls-4" points="1200.59 -22.01 1328.71 283.33 1200.97 592.13 1328.21 879.84"/>
          <g>
            <g>
              <rect class="cls-12" x="829.91" y="651.86" width="40.44" height="194.72"/>
              <rect class="cls-5" x="870.35" y="651.6" width="76.04" height="194.98"/>
            </g>
            <g>
              <rect class="cls-6" x="945.58" y="670.76" width="12.23" height="173.62"/>
              <rect class="cls-11" x="957.82" y="670.98" width="98.9" height="173.62"/>
            </g>
            <g>
              <rect class="cls-6" x="1051.88" y="746.39" width="47.91" height="100.66"/>
              <rect class="cls-11" x="1098.47" y="746.17" width="137.14" height="100.66"/>
            </g>
            <g>
              <rect class="cls-5" x="1010.74" y="737.55" width="58.53" height="108.97" transform="translate(2080.01 1584.08) rotate(-180)"/>
              <rect class="cls-12" x="973.62" y="737.55" width="37.13" height="108.86" transform="translate(1984.36 1583.97) rotate(-180)"/>
              <rect class="cls-13" x="984.42" y="737.97" width="12.73" height="19.54" transform="translate(1981.57 1495.48) rotate(-180)"/>
              <g>
                <rect class="cls-13" x="1022.44" y="760.84" width="34.38" height="1.03" transform="translate(2079.25 1522.72) rotate(-180)"/>
                <rect class="cls-13" x="1022.44" y="766.17" width="34.38" height="1.03" transform="translate(2079.25 1533.37) rotate(-180)"/>
              </g>
            </g>
            <g>
              <rect class="cls-6" x="929.86" y="780.38" width="50.63" height="66.75" transform="translate(1910.35 1627.51) rotate(-180)"/>
              <rect class="cls-11" x="980.49" y="780.47" width="95.95" height="66.55" transform="translate(2056.93 1627.49) rotate(-180)"/>
            </g>
            <g>
              <rect class="cls-8" x="735.6" y="728.05" width="127.23" height="118.72" transform="translate(1598.43 1574.83) rotate(-180)"/>
              <rect class="cls-12" x="659.71" y="728.05" width="76.01" height="118.72" transform="translate(1395.43 1574.83) rotate(-180)"/>
              <g>
                <path class="cls-13" d="M749.67,766.91s18.36,11.65,45.13,12.02c26.77.36,40.88-7.17,40.88-7.17,0,0,2.49-1.21,3.27,0,.8,1.58-.85,2.54-.85,2.54,0,0-21.77,13.88-45.06,12.6-28.37-1.56-45.3-18.41-45.3-18.41,0,0-2.16-2.1-1.31-2.75s3.25,1.18,3.25,1.18Z"/>
                <path class="cls-13" d="M829.16,766.46c1.08-.76,2.42-1.1,4.34-1.5,3.36-.61,7.74-1.35,11.18-.51,5.63,1.49,2.98,7.63,1.03,11.78-.95,1.96-2.68,5.25-4.05,6.31-.82.67-1.39.32-1.16-1.23.21-1.74,1.32-4.46,1.68-6.4,1.05-4.96-1.32-6.66-6.27-6.63-2.18-.02-4.17.17-5.78-.13-.94-.14-2.18-.78-1.01-1.67l.03-.02Z"/>
              </g>
            </g>
          </g>
          <rect class="cls-14" x="655.25" y="848" width="10.35" height="31.36"/>
          <g id="Pallet-2" data-name="Pallet">
            <rect class="cls-16" x="665.4" y="848" width="25.7" height="31.36"/>
            <g>
              <rect class="cls-14" x="798.09" y="848.43" width="10.35" height="31.36"/>
              <rect class="cls-16" x="808.23" y="848.43" width="25.7" height="31.36"/>
            </g>
            <g>
              <rect class="cls-14" x="935.85" y="847.09" width="10.35" height="31.36"/>
              <rect class="cls-16" x="946" y="847.09" width="25.7" height="31.36"/>
            </g>
            <g>
              <rect class="cls-14" x="1073.62" y="847.42" width="10.35" height="31.36"/>
              <rect class="cls-16" x="1083.76" y="847.42" width="25.7" height="31.36"/>
            </g>
            <g>
              <rect class="cls-14" x="1211.38" y="847.09" width="10.35" height="31.36"/>
              <rect class="cls-16" x="1221.53" y="847.09" width="25.7" height="31.36"/>
            </g>
            <rect class="cls-16" x="655.21" y="876.4" width="592.64" height="3.36"/>
            <rect class="cls-16" x="655.22" y="846.73" width="592.45" height="3.36"/>
          </g>
          <line class="cls-4" x1="1918.26" y1="283.33" x2="-31.46" y2="283.33"/>
          <g>
            <g>
              <rect class="cls-8" x="1121.09" y="471.49" width="127.23" height="118.72" transform="translate(2369.42 1061.69) rotate(-180)"/>
              <rect class="cls-12" x="1045.2" y="471.49" width="76.01" height="118.72" transform="translate(2166.42 1061.69) rotate(-180)"/>
              <g>
                <path class="cls-13" d="M1135.16,510.35s18.36,11.65,45.13,12.02c26.77.36,40.88-7.17,40.88-7.17,0,0,2.49-1.21,3.27,0,.8,1.58-.85,2.54-.85,2.54,0,0-21.77,13.88-45.06,12.6-28.37-1.56-45.3-18.41-45.3-18.41,0,0-2.16-2.1-1.31-2.75.82-.63,3.25,1.18,3.25,1.18Z"/>
                <path class="cls-13" d="M1214.65,509.89c1.08-.76,2.42-1.1,4.34-1.5,3.36-.61,7.74-1.35,11.18-.51,5.63,1.49,2.98,7.63,1.03,11.78-.95,1.96-2.68,5.25-4.05,6.31-.82.67-1.39.32-1.16-1.23.21-1.74,1.32-4.46,1.68-6.4,1.05-4.96-1.32-6.66-6.27-6.63-2.18-.02-4.17.17-5.78-.13-.94-.14-2.18-.78-1.01-1.67l.03-.02Z"/>
              </g>
            </g>
            <g>
              <rect class="cls-12" x="867.52" y="419.66" width="40.44" height="170.6"/>
              <rect class="cls-5" x="907.94" y="419.62" width="76.06" height="170.64"/>
              <rect class="cls-13" x="879.05" y="419.65" width="19.56" height="17" transform="translate(1777.66 856.3) rotate(-180)"/>
            </g>
            <g>
              <rect class="cls-6" x="694.82" y="489.71" width="47.91" height="100.33"/>
              <rect class="cls-11" x="741.41" y="489.49" width="137.14" height="100.66"/>
            </g>
            <g>
              <rect class="cls-5" x="1003.68" y="464.64" width="67.41" height="125.51" transform="translate(2074.78 1054.79) rotate(-180)"/>
              <rect class="cls-12" x="960.92" y="464.64" width="42.76" height="125.39" transform="translate(1964.61 1054.66) rotate(-180)"/>
              <rect class="cls-13" x="973.36" y="465.12" width="14.66" height="22.51" transform="translate(1961.39 952.75) rotate(-180)"/>
              <g>
                <rect class="cls-13" x="1017.15" y="491.47" width="39.6" height="1.19" transform="translate(2073.9 984.12) rotate(-180)"/>
                <rect class="cls-13" x="1017.15" y="497.6" width="39.6" height="1.19" transform="translate(2073.9 996.38) rotate(-180)"/>
              </g>
            </g>
            <g>
              <rect class="cls-6" x="1114.65" y="404.87" width="50.63" height="66.75" transform="translate(2279.92 876.48) rotate(-180)"/>
              <rect class="cls-5" x="1165.27" y="404.96" width="95.95" height="66.55" transform="translate(2426.5 876.46) rotate(-180)"/>
            </g>
            <rect class="cls-13" x="803.53" y="490.02" width="19.56" height="17" transform="translate(1626.62 997.05) rotate(-180)"/>
            <g>
              <rect class="cls-11" x="777.82" y="363.3" width="67.8" height="126.24" transform="translate(1623.44 852.83) rotate(-180)"/>
              <rect class="cls-12" x="734.81" y="363.3" width="43.01" height="126.11" transform="translate(1512.63 852.71) rotate(-180)"/>
              <rect class="cls-13" x="747.32" y="363.78" width="14.75" height="22.64" transform="translate(1509.39 750.2) rotate(-180)"/>
              <g>
                <rect class="cls-13" x="791.36" y="390.28" width="39.82" height="1.19" transform="translate(1622.55 781.75) rotate(-180)"/>
                <rect class="cls-13" x="791.36" y="396.45" width="39.82" height="1.19" transform="translate(1622.55 794.09) rotate(-180)"/>
              </g>
            </g>
          </g>
          <line class="cls-4" x1="714.84" y1="-21.81" x2="714.84" y2="878.95"/>
          <line class="cls-4" x1="-30.97" y1="591.91" x2="1919.67" y2="591.91"/>
          <line class="cls-4" x1="592.34" y1="-22.61" x2="592.34" y2="877.93"/>
          <rect class="cls-13" x="173.48" y="182.97" width="19.56" height="17" transform="translate(366.53 382.94) rotate(-180)"/>
          <g>
            <g>
              <rect class="cls-11" x="137.68" y="101.25" width="67.8" height="80.87" transform="translate(343.16 283.37) rotate(180)"/>
              <rect class="cls-12" x="94.67" y="101.25" width="43.01" height="80.79" transform="translate(232.35 283.29) rotate(180)"/>
              <rect class="cls-13" x="107.18" y="101.73" width="14.75" height="22.64" transform="translate(229.11 226.11) rotate(-180)"/>
              <g>
                <rect class="cls-13" x="151.22" y="128.23" width="39.82" height="1.19" transform="translate(342.27 257.66) rotate(-180)"/>
                <rect class="cls-13" x="151.22" y="134.4" width="39.82" height="1.19" transform="translate(342.27 269.99) rotate(-180)"/>
              </g>
            </g>
            <g>
              <rect class="cls-8" x="491.05" y="164.43" width="127.23" height="118.72" transform="translate(1109.33 447.59) rotate(-180)"/>
              <rect class="cls-12" x="415.16" y="164.43" width="76.01" height="118.72" transform="translate(906.33 447.59) rotate(-180)"/>
              <g>
                <path class="cls-13" d="M505.12,203.29s18.36,11.65,45.13,12.02c26.77.36,40.88-7.17,40.88-7.17,0,0,2.49-1.21,3.27,0,.8,1.58-.85,2.54-.85,2.54,0,0-21.77,13.88-45.06,12.6-28.37-1.56-45.3-18.41-45.3-18.41,0,0-2.16-2.1-1.31-2.75.82-.63,3.25,1.18,3.25,1.18Z"/>
                <path class="cls-13" d="M584.61,202.84c1.08-.76,2.42-1.1,4.34-1.5,3.36-.61,7.74-1.35,11.18-.51,5.63,1.49,2.98,7.63,1.03,11.78-.95,1.96-2.68,5.25-4.05,6.31-.82.67-1.39.32-1.16-1.23.21-1.74,1.32-4.46,1.68-6.4,1.05-4.96-1.32-6.66-6.27-6.63-2.18-.02-4.17.17-5.78-.13-.94-.14-2.18-.78-1.01-1.67l.03-.02Z"/>
              </g>
            </g>
            <g>
              <rect class="cls-12" x="237.48" y="112.61" width="40.44" height="170.6"/>
              <rect class="cls-5" x="277.9" y="112.57" width="76.06" height="170.64"/>
              <rect class="cls-13" x="249.01" y="112.6" width="19.56" height="17" transform="translate(517.57 242.2) rotate(-180)"/>
            </g>
            <g>
              <rect class="cls-6" x="64.78" y="182.66" width="47.91" height="100.33"/>
              <rect class="cls-11" x="111.37" y="182.44" width="137.14" height="100.66"/>
            </g>
            <g>
              <rect class="cls-5" x="373.64" y="157.58" width="67.41" height="125.51" transform="translate(814.69 440.68) rotate(-180)"/>
              <rect class="cls-12" x="330.88" y="157.58" width="42.76" height="125.39" transform="translate(704.52 440.56) rotate(-180)"/>
              <rect class="cls-13" x="343.32" y="158.06" width="14.66" height="22.51" transform="translate(701.3 338.64) rotate(-180)"/>
              <g>
                <rect class="cls-13" x="387.11" y="184.41" width="39.6" height="1.19" transform="translate(813.81 370.01) rotate(-180)"/>
                <rect class="cls-13" x="387.11" y="190.54" width="39.6" height="1.19" transform="translate(813.81 382.27) rotate(-180)"/>
              </g>
            </g>
            <g>
              <rect class="cls-6" x="484.6" y="97.81" width="50.63" height="66.75" transform="translate(1019.83 262.37) rotate(-180)"/>
              <rect class="cls-5" x="535.23" y="97.9" width="95.95" height="66.55" transform="translate(1166.41 262.35) rotate(-180)"/>
            </g>
          </g>
          <g>
            <g>
              <rect class="cls-5" x="676.35" y="182.05" width="145.01" height="101.05" transform="translate(1497.7 465.14) rotate(-180)"/>
              <rect class="cls-12" x="635.67" y="181.89" width="41.03" height="101.08" transform="translate(1312.37 464.86) rotate(-180)"/>
              <rect class="cls-13" x="735.73" y="182.1" width="15.99" height="21.17" transform="translate(1487.46 385.37) rotate(-180)"/>
            </g>
            <rect class="cls-6" x="821.26" y="119.87" width="38.05" height="163.15" transform="translate(1680.58 402.9) rotate(-180)"/>
            <rect class="cls-5" x="856.6" y="119.85" width="105.11" height="163.15" transform="translate(1818.32 402.84) rotate(-180)"/>
            <rect class="cls-13" x="834.45" y="120.97" width="12.72" height="19.53" transform="translate(1681.62 261.48) rotate(-180)"/>
            <g>
              <rect class="cls-8" x="1027.45" y="145.58" width="147.27" height="137.41" transform="translate(2202.17 428.58) rotate(-180)"/>
              <rect class="cls-12" x="939.61" y="145.58" width="87.98" height="137.41" transform="translate(1967.21 428.58) rotate(-180)"/>
              <g>
                <path class="cls-13" d="M1153.64,190.56s-21.25,13.49-52.23,13.91c-30.98.42-47.31-8.3-47.31-8.3,0,0-2.88-1.4-3.79,0-.92,1.83.98,2.94.98,2.94,0,0,25.2,16.07,52.16,14.58,32.84-1.81,52.44-21.31,52.44-21.31,0,0,2.5-2.43,1.52-3.19s-3.76,1.37-3.76,1.37Z"/>
                <path class="cls-13" d="M1061.64,190.03c-1.26-.88-2.8-1.27-5.02-1.74-3.89-.71-8.96-1.56-12.95-.59-6.52,1.73-3.45,8.83-1.19,13.64,1.1,2.26,3.1,6.08,4.68,7.3.95.78,1.61.38,1.34-1.42-.24-2.02-1.53-5.17-1.95-7.41-1.21-5.74,1.53-7.71,7.26-7.67,2.52-.02,4.83.2,6.69-.15,1.09-.16,2.53-.91,1.17-1.94l-.03-.02Z"/>
              </g>
            </g>
          </g>
          <polyline class="cls-4" points="592.26 -22.19 714.48 283.67 593.7 591.85 714.84 878.95"/>
          <g>
            <g>
              <rect class="cls-8" x="313.25" y="659.3" width="157.85" height="186.67" transform="translate(784.35 1505.26) rotate(-180)"/>
              <rect class="cls-12" x="219.09" y="659.3" width="94.31" height="186.67" transform="translate(532.5 1505.26) rotate(-180)"/>
              <g>
                <path class="cls-13" d="M330.71,746.89s22.77,14.46,55.99,14.91c33.21.45,50.71-8.9,50.71-8.9,0,0,3.08-1.5,4.06,0,.99,1.96-1.05,3.16-1.05,3.16,0,0-27.01,17.22-55.91,15.63-35.2-1.94-56.21-22.84-56.21-22.84,0,0-2.68-2.61-1.63-3.42,1.02-.78,4.03,1.46,4.03,1.46Z"/>
                <path class="cls-13" d="M429.32,746.32c1.35-.94,3.01-1.36,5.38-1.86,4.17-.76,9.61-1.67,13.88-.63,6.99,1.85,3.7,9.46,1.28,14.62-1.18,2.43-3.32,6.52-5.02,7.83-1.02.83-1.73.4-1.44-1.53.26-2.16,1.64-5.54,2.09-7.95,1.3-6.15-1.64-8.27-7.78-8.22-2.7-.02-5.17.22-7.17-.16-1.17-.17-2.71-.97-1.25-2.07l.03-.03Z"/>
              </g>
              <rect class="cls-13" x="380.57" y="657.92" width="36.48" height="27.49" transform="translate(797.61 1343.34) rotate(-180)"/>
            </g>
            <g>
              <rect class="cls-5" x="137.03" y="630.43" width="97.92" height="215.23" transform="translate(371.98 1476.09) rotate(-180)"/>
              <rect class="cls-12" x="17.73" y="630.49" width="119.63" height="214.64" transform="translate(155.08 1475.62) rotate(-180)"/>
              <rect class="cls-13" x="66.64" y="630.65" width="25.18" height="38.65" transform="translate(158.45 1299.96) rotate(-180)"/>
            </g>
            <g>
              <rect class="cls-11" x="151.24" y="788.7" width="89.49" height="56.51" transform="translate(391.98 1633.91) rotate(-180)"/>
              <rect class="cls-6" x="61.87" y="788.82" width="89.49" height="56.51" transform="translate(213.23 1634.14) rotate(-180)"/>
              <rect class="cls-13" x="194.47" y="788.73" width="12.43" height="19.09" transform="translate(401.38 1596.54) rotate(-180)"/>
            </g>
          </g>
          <g id="Pallet-3" data-name="Pallet">
            <rect class="cls-16" x="36.48" y="847.04" width="26.53" height="32.38"/>
            <g>
              <rect class="cls-14" x="173.49" y="847.48" width="10.69" height="32.38"/>
              <rect class="cls-16" x="183.97" y="847.48" width="26.53" height="32.38"/>
              <rect class="cls-14" x="26.94" y="846.74" width="10.69" height="32.38"/>
            </g>
            <g>
              <rect class="cls-14" x="315.74" y="846.1" width="10.69" height="32.38"/>
              <rect class="cls-16" x="326.22" y="846.1" width="26.53" height="32.38"/>
            </g>
            <g>
              <rect class="cls-14" x="457.99" y="846.44" width="10.69" height="32.38"/>
              <rect class="cls-16" x="468.47" y="846.44" width="26.53" height="32.38"/>
            </g>
            <g>
              <rect class="cls-14" x="600.25" y="846.1" width="10.69" height="32.38"/>
              <rect class="cls-16" x="610.72" y="846.1" width="26.53" height="32.38"/>
            </g>
            <rect class="cls-16" x="26.48" y="876.36" width="611.42" height="3.47"/>
            <rect class="cls-16" x="26.28" y="845.73" width="611.38" height="3.47"/>
          </g>
          <polyline class="cls-4" points="-30.42 -21.68 98.77 283.41 -30.59 591.35 99.01 879.42"/>
          <line class="cls-4" x1="99.06" y1="-21.92" x2="99.14" y2="879.81"/>
          <g>
            <g>
              <rect class="cls-5" x="1356.77" y="490.47" width="145.01" height="101.05" transform="translate(2858.56 1081.99) rotate(-180)"/>
              <rect class="cls-12" x="1316.1" y="490.31" width="41.03" height="101.08" transform="translate(2673.23 1081.7) rotate(-180)"/>
              <rect class="cls-13" x="1416.16" y="490.52" width="15.99" height="21.17" transform="translate(2848.31 1002.22) rotate(-180)"/>
            </g>
            <g>
              <rect class="cls-6" x="1376.91" y="339.29" width="49.35" height="152.85" transform="translate(2803.17 831.42) rotate(-180)"/>
              <rect class="cls-8" x="1425.55" y="339.62" width="178.13" height="152.51" transform="translate(3029.23 831.75) rotate(-180)"/>
              <g>
                <rect class="cls-13" x="1442.55" y="444.73" width="49.16" height="1.47"/>
                <rect class="cls-13" x="1442.55" y="452.35" width="49.16" height="1.47"/>
                <g>
                  <path class="cls-13" d="M1454.05,393.01s20.64,13.1,50.73,13.51c30.09.41,45.95-8.06,45.95-8.06,0,0,2.79-1.36,3.68,0,.9,1.78-.95,2.86-.95,2.86,0,0-24.47,15.61-50.66,14.16-31.89-1.76-50.93-20.7-50.93-20.7,0,0-2.43-2.36-1.47-3.1s3.65,1.33,3.65,1.33Z"/>
                  <path class="cls-13" d="M1543.41,392.5c1.22-.85,2.72-1.24,4.88-1.69,3.78-.69,8.7-1.52,12.57-.57,6.33,1.68,3.35,8.58,1.16,13.25-1.07,2.2-3.01,5.9-4.55,7.09-.93.75-1.56.36-1.3-1.38.23-1.96,1.49-5.02,1.89-7.2,1.18-5.58-1.48-7.49-7.05-7.45-2.45-.02-4.69.2-6.5-.14-1.06-.15-2.45-.88-1.13-1.88l.03-.02Z"/>
                </g>
              </g>
            </g>
            <g>
              <rect class="cls-6" x="1501.69" y="428.3" width="38.05" height="163.15" transform="translate(3041.43 1019.74) rotate(-180)"/>
              <rect class="cls-5" x="1537.03" y="428.27" width="105.11" height="163.15" transform="translate(3179.18 1019.69) rotate(-180)"/>
              <rect class="cls-13" x="1514.87" y="429.39" width="12.72" height="19.53" transform="translate(3042.47 878.32) rotate(-180)"/>
            </g>
            <g>
              <rect class="cls-8" x="1707.88" y="454.01" width="147.27" height="137.41" transform="translate(3563.02 1045.42) rotate(-180)"/>
              <rect class="cls-12" x="1620.04" y="454.01" width="87.98" height="137.41" transform="translate(3328.06 1045.42) rotate(-180)"/>
              <g>
                <path class="cls-13" d="M1834.07,498.99s-21.25,13.49-52.23,13.91c-30.98.42-47.31-8.3-47.31-8.3,0,0-2.88-1.4-3.79,0-.92,1.83.98,2.94.98,2.94,0,0,25.2,16.07,52.16,14.58,32.84-1.81,52.44-21.31,52.44-21.31,0,0,2.5-2.43,1.52-3.19-.95-.73-3.76,1.37-3.76,1.37Z"/>
                <path class="cls-13" d="M1742.07,498.46c-1.26-.88-2.8-1.27-5.02-1.74-3.89-.71-8.96-1.56-12.95-.59-6.52,1.73-3.45,8.83-1.19,13.64,1.1,2.26,3.1,6.08,4.68,7.3.95.78,1.61.38,1.34-1.42-.24-2.02-1.53-5.17-1.95-7.41-1.21-5.74,1.53-7.71,7.26-7.67,2.52-.02,4.83.2,6.69-.15,1.09-.16,2.53-.91,1.17-1.94l-.03-.02Z"/>
              </g>
            </g>
          </g>
          <g>
            <g>
              <rect class="cls-8" x="105.4" y="453.96" width="147.27" height="137.41" transform="translate(358.06 1045.32) rotate(-180)"/>
              <rect class="cls-12" x="17.56" y="453.96" width="87.98" height="137.41" transform="translate(123.11 1045.32) rotate(-180)"/>
              <g>
                <path class="cls-13" d="M121.69,498.94s21.25,13.49,52.23,13.91c30.98.42,47.31-8.3,47.31-8.3,0,0,2.88-1.4,3.79,0,.92,1.83-.98,2.94-.98,2.94,0,0-25.2,16.07-52.16,14.58-32.84-1.81-52.44-21.31-52.44-21.31,0,0-2.5-2.43-1.52-3.19.95-.73,3.76,1.37,3.76,1.37Z"/>
                <path class="cls-13" d="M213.69,498.41c1.26-.88,2.8-1.27,5.02-1.74,3.89-.71,8.96-1.56,12.95-.59,6.52,1.73,3.45,8.83,1.19,13.64-1.1,2.26-3.1,6.08-4.68,7.3-.95.78-1.61.38-1.34-1.42.24-2.02,1.53-5.17,1.95-7.41,1.21-5.74-1.53-7.71-7.26-7.67-2.52-.02-4.83.2-6.69-.15-1.09-.16-2.53-.91-1.17-1.94l.03-.02Z"/>
              </g>
            </g>
            <g>
              <rect class="cls-5" x="367.75" y="374.68" width="92.22" height="215.99" transform="translate(827.72 965.36) rotate(-180)"/>
              <rect class="cls-12" x="262.8" y="374.68" width="105.34" height="215.99" transform="translate(630.93 965.36) rotate(-180)"/>
              <rect class="cls-13" x="403.6" y="374.53" width="22.87" height="30.28" transform="translate(830.06 779.35) rotate(-180)"/>
            </g>
            <g>
              <rect class="cls-8" x="482.87" y="431.76" width="127.05" height="159.24" transform="translate(1092.79 1022.76) rotate(-180)"/>
              <rect class="cls-12" x="395.63" y="431.76" width="87.14" height="159.24" transform="translate(878.39 1022.76) rotate(-180)"/>
              <rect class="cls-13" x="426.97" y="431.76" width="22.87" height="30.28" transform="translate(876.8 893.8) rotate(-180)"/>
            </g>
            <g>
              <rect class="cls-11" x="333.74" y="521.53" width="100.73" height="69.67" transform="translate(768.2 1112.73) rotate(-180)"/>
              <rect class="cls-6" x="234.46" y="521.53" width="99.28" height="69.67" transform="translate(568.19 1112.73) rotate(-180)"/>
              <g>
                <rect class="cls-13" x="354.31" y="565.26" width="59.76" height="1.79" transform="translate(768.38 1132.32) rotate(-180)"/>
                <rect class="cls-13" x="354.31" y="574.52" width="59.76" height="1.79" transform="translate(768.38 1150.83) rotate(-180)"/>
              </g>
            </g>
            <g>
              <rect class="cls-11" x="513.21" y="337.32" width="67.8" height="95.39" transform="translate(1094.22 770.03) rotate(180)"/>
              <rect class="cls-12" x="470.2" y="337.32" width="43.01" height="95.29" transform="translate(983.41 769.94) rotate(180)"/>
              <rect class="cls-13" x="482.71" y="337.81" width="14.75" height="22.64" transform="translate(980.18 698.25) rotate(-180)"/>
              <g>
                <rect class="cls-13" x="526.75" y="364.31" width="39.82" height="1.19" transform="translate(1093.33 729.81) rotate(-180)"/>
                <rect class="cls-13" x="526.75" y="370.47" width="39.82" height="1.19" transform="translate(1093.33 742.14) rotate(-180)"/>
              </g>
            </g>
          </g>
          <g>
            <g>
              <rect class="cls-2" x="99.09" y="282.73" width="1710.58" height="6.96" transform="translate(1908.75 572.41) rotate(180)"/>
              <rect class="cls-7" x="-30.13" y="282.71" width="129.39" height="6.93" transform="translate(69.12 572.36) rotate(180)"/>
              <rect class="cls-7" x="591.85" y="282.93" width="123.92" height="6.93" transform="translate(1307.62 572.8) rotate(180)"/>
            </g>
            <rect class="cls-7" x="1200.3" y="282.75" width="128.73" height="6.93" transform="translate(2529.34 572.42) rotate(180)"/>
            <rect class="cls-7" x="1790.26" y="282.74" width="128.73" height="6.93" transform="translate(3709.25 572.4) rotate(180)"/>
          </g>
          <g>
            <g>
              <g>
                <rect class="cls-2" x="98.7" y="589.71" width="1710.58" height="6.96" transform="translate(1907.98 1186.39) rotate(180)"/>
                <rect class="cls-7" x="-30.52" y="589.7" width="129.39" height="6.93" transform="translate(68.35 1186.33) rotate(180)"/>
                <rect class="cls-7" x="591.47" y="589.92" width="123.92" height="6.93" transform="translate(1306.85 1186.77) rotate(180)"/>
              </g>
              <rect class="cls-7" x="1199.92" y="589.73" width="128.73" height="6.93" transform="translate(2528.57 1186.4) rotate(180)"/>
            </g>
            <rect class="cls-7" x="1790.18" y="589.87" width="128.73" height="6.93" transform="translate(3709.09 1186.68) rotate(180)"/>
          </g>
        </g>
        <g id="Lights">
          <g>
            <line class="cls-4" x1="1048.39" y1="-92.57" x2="1048.39" y2="36.46"/>
            <line class="cls-4" x1="846.79" y1="-92.42" x2="846.79" y2="36.6"/>
            <polygon class="cls-9" points="1090 36.48 825.88 36.48 846.09 74.26 1114.58 74.26 1090 36.48"/>
            <polygon class="cls-1" points="846 74.26 787.7 74.26 810.55 36.58 825.72 36.48 846 74.26"/>
            <line class="cls-4" x1="1099.11" y1="63.8" x2="853.99" y2="63.8"/>
            <line class="cls-4" x1="837.68" y1="64.09" x2="812.07" y2="64.09"/>
            <line class="cls-4" x1="801.74" y1="64.09" x2="793.8" y2="64.09"/>
          </g>
          <g>
            <line class="cls-4" x1="1712.45" y1="-93.27" x2="1712.45" y2="35.76"/>
            <line class="cls-4" x1="1510.85" y1="-93.13" x2="1510.85" y2="35.9"/>
            <polygon class="cls-9" points="1754.07 35.78 1489.95 35.78 1510.16 73.56 1778.64 73.56 1754.07 35.78"/>
            <polygon class="cls-1" points="1510.07 73.56 1451.77 73.56 1474.62 35.87 1489.79 35.78 1510.07 73.56"/>
            <line class="cls-4" x1="1763.18" y1="63.1" x2="1518.06" y2="63.1"/>
            <line class="cls-4" x1="1501.75" y1="63.39" x2="1476.14" y2="63.39"/>
            <line class="cls-4" x1="1465.81" y1="63.39" x2="1457.86" y2="63.39"/>
          </g>
          <g>
            <line class="cls-4" x1="398.05" y1="-92.18" x2="398.05" y2="36.85"/>
            <line class="cls-4" x1="196.46" y1="-92.04" x2="196.46" y2="36.98"/>
            <polygon class="cls-9" points="439.67 36.86 175.55 36.86 195.76 74.64 464.25 74.64 439.67 36.86"/>
            <polygon class="cls-1" points="195.67 74.64 137.37 74.64 160.22 36.96 175.39 36.86 195.67 74.64"/>
            <line class="cls-4" x1="448.78" y1="64.18" x2="203.66" y2="64.18"/>
            <line class="cls-4" x1="187.35" y1="64.47" x2="161.74" y2="64.47"/>
            <line class="cls-4" x1="151.41" y1="64.47" x2="143.47" y2="64.47"/>
          </g>
        </g>
      </g>
    </g>
  </g>
</svg>